<svg xmlns="http://www.w3.org/2000/svg" viewBox="0 0 800 600" preserveAspectRatio="xMidYMid slice" role="img" aria-label="Villa Saloum, duplex familial avec studios locatifs attenants">
<defs><linearGradient id="sky" x1="0" y1="0" x2="0" y2="1"><stop offset="0" stop-color="#F7EDDD"/><stop offset="1" stop-color="#EEDFC8"/></linearGradient><linearGradient id="gnd" x1="0" y1="0" x2="0" y2="1"><stop offset="0" stop-color="#DFCCAA"/><stop offset="1" stop-color="#D0B68F"/></linearGradient><linearGradient id="fac" x1="0" y1="0" x2="0" y2="1"><stop offset="0" stop-color="#FCF8F1"/><stop offset="1" stop-color="#F3E9D9"/></linearGradient></defs>
<rect width="800" height="600" fill="url(#sky)"/>
<circle cx="658" cy="126" r="54" fill="#F0DCA2" opacity=".34"/>
<circle cx="658" cy="126" r="31" fill="#F0DCA2" opacity=".42"/>
<rect x="0" y="388.0" width="800" height="64" fill="#E9D9BE" opacity=".45"/>
<g transform="translate(400,600) scale(1.11) translate(-400,-600)">
<g opacity="0.9" transform="translate(78,456.0) scale(1.0,1.0)"><path d="M0 0 C -3 -32 -5 -58 -2 -86" stroke="#A08363" stroke-width="6.5" fill="none" stroke-linecap="round"/><path d="M-2 -86 Q -28.6 -93.0 -52 -100" stroke="#7F9370" stroke-width="8.5" fill="none" stroke-linecap="round"/><path d="M-2 -86 Q -22.0 -101.5 -40 -117" stroke="#7F9370" stroke-width="8.5" fill="none" stroke-linecap="round"/><path d="M-2 -86 Q -3.3 -106.0 -6 -126" stroke="#7F9370" stroke-width="8.5" fill="none" stroke-linecap="round"/><path d="M-2 -86 Q 15.4 -100.5 28 -115" stroke="#7F9370" stroke-width="8.5" fill="none" stroke-linecap="round"/><path d="M-2 -86 Q 23.1 -90.5 42 -95" stroke="#7F9370" stroke-width="8.5" fill="none" stroke-linecap="round"/><path d="M-2 -86 Q 4.4 -108.5 8 -131" stroke="#7F9370" stroke-width="8.5" fill="none" stroke-linecap="round"/><circle cx="-2" cy="-86" r="5.5" fill="#63775A"/></g>
<g opacity="0.85" transform="translate(742,460.0) scale(-0.9,0.9)"><path d="M0 0 C -3 -32 -5 -58 -2 -86" stroke="#A08363" stroke-width="6.5" fill="none" stroke-linecap="round"/><path d="M-2 -86 Q -28.6 -93.0 -52 -100" stroke="#7F9370" stroke-width="8.5" fill="none" stroke-linecap="round"/><path d="M-2 -86 Q -22.0 -101.5 -40 -117" stroke="#7F9370" stroke-width="8.5" fill="none" stroke-linecap="round"/><path d="M-2 -86 Q -3.3 -106.0 -6 -126" stroke="#7F9370" stroke-width="8.5" fill="none" stroke-linecap="round"/><path d="M-2 -86 Q 15.4 -100.5 28 -115" stroke="#7F9370" stroke-width="8.5" fill="none" stroke-linecap="round"/><path d="M-2 -86 Q 23.1 -90.5 42 -95" stroke="#7F9370" stroke-width="8.5" fill="none" stroke-linecap="round"/><path d="M-2 -86 Q 4.4 -108.5 8 -131" stroke="#7F9370" stroke-width="8.5" fill="none" stroke-linecap="round"/><circle cx="-2" cy="-86" r="5.5" fill="#63775A"/></g>
<rect x="0" y="452.0" width="800" height="148.0" fill="url(#gnd)"/>
<path d="M0 452.0 H800" stroke="#D0BEA4" stroke-width="2" opacity=".55"/>
<ellipse cx="400.0" cy="462.0" rx="178.8" ry="13" fill="#C4AC8E" opacity=".5"/>
<rect x="127.0" y="363.7" width="104" height="88.3" fill="#E4D4BB"/>
<rect x="121.0" y="351.7" width="116" height="12" fill="#F4EBDD"/>
<rect x="121.0" y="351.7" width="116" height="4" fill="#C07A46"/>
<rect x="139.0" y="379.7" width="45.8" height="34" rx="3" fill="#6B5238"/><path d="M143.0 408.7 L180.8 385.7" stroke="#8F7457" stroke-width="2.5" opacity=".5"/><rect x="135.0" y="413.7" width="53.8" height="4" rx="2" fill="#C07A46"/>
<rect x="187.0" y="400.0" width="30" height="52" rx="3" fill="#7A5334"/>
<rect x="180.0" y="390.0" width="44" height="6" rx="2" fill="#C07A46"/>
<path d="M533.0 452.0 l44.0 -24 v-192.0 l-44.0 24 z" fill="#E4D4BB"/>
<rect x="235.0" y="260.0" width="298" height="192.0" fill="url(#fac)"/>
<rect x="253.0" y="282.0" width="75.3" height="46" rx="3" fill="#6B5238"/><path d="M257.0 323.0 L324.3 288.0" stroke="#8F7457" stroke-width="2.5" opacity=".5"/><rect x="249.0" y="328.0" width="83.3" height="4" rx="2" fill="#C07A46"/><rect x="346.3" y="282.0" width="75.3" height="46" rx="3" fill="#6B5238"/><path d="M350.3 323.0 L417.7 288.0" stroke="#8F7457" stroke-width="2.5" opacity=".5"/><rect x="342.3" y="328.0" width="83.3" height="4" rx="2" fill="#C07A46"/><rect x="439.7" y="282.0" width="75.3" height="46" rx="3" fill="#6B5238"/><path d="M443.7 323.0 L511.0 288.0" stroke="#8F7457" stroke-width="2.5" opacity=".5"/><rect x="435.7" y="328.0" width="83.3" height="4" rx="2" fill="#C07A46"/>
<path d="M235.0 356.0 h298" stroke="#D0BEA4" stroke-width="2" opacity=".6"/>
<rect x="253.0" y="374.0" width="89.0" height="48" rx="3" fill="#6B5238"/><path d="M257.0 417.0 L338.0 380.0" stroke="#8F7457" stroke-width="2.5" opacity=".5"/><rect x="249.0" y="422.0" width="97.0" height="4" rx="2" fill="#C07A46"/>
<rect x="427.6" y="394.0" width="89.4" height="58" rx="4" fill="#57422F"/>
<path d="M432.6 403.0 h79.4" stroke="#8F7457" stroke-width="2" opacity=".45"/>
<path d="M432.6 413.0 h79.4" stroke="#8F7457" stroke-width="2" opacity=".45"/>
<path d="M432.6 423.0 h79.4" stroke="#8F7457" stroke-width="2" opacity=".45"/>
<path d="M432.6 433.0 h79.4" stroke="#8F7457" stroke-width="2" opacity=".45"/>
<path d="M432.6 443.0 h79.4" stroke="#8F7457" stroke-width="2" opacity=".45"/>
<rect x="421.6" y="385.0" width="101.4" height="6" rx="2" fill="#C07A46"/>
<rect x="356.0" y="384.0" width="56" height="68" rx="4" fill="#7A5334"/>
<path d="M384.0 390.0 v56" stroke="#EADCC7" stroke-width="2" opacity=".55"/>
<circle cx="393.0" cy="418.0" r="2.6" fill="#E7D3B4"/>
<rect x="341.0" y="372.0" width="86" height="8" rx="3" fill="#C07A46"/>
<rect x="336.0" y="452.0" width="96" height="6" fill="#E4D4BB"/>
<rect x="227.0" y="245.0" width="314" height="15" fill="#F4EBDD"/>
<path d="M541.0 245.0 l44.0 -24 h-44.0 z" fill="#E4D4BB"/>
<rect x="227.0" y="245.0" width="314" height="5" fill="#C07A46"/>
<path d="M374.0 212.0 h149.0" stroke="#C07A46" stroke-width="4" stroke-linecap="round"/>
<path d="M374.0 212.0 v33" stroke="#B79C7A" stroke-width="3" opacity=".6" stroke-linecap="round"/>
<path d="M394.0 212.0 v33" stroke="#B79C7A" stroke-width="3" opacity=".6" stroke-linecap="round"/>
<path d="M414.0 212.0 v33" stroke="#B79C7A" stroke-width="3" opacity=".6" stroke-linecap="round"/>
<path d="M434.0 212.0 v33" stroke="#B79C7A" stroke-width="3" opacity=".6" stroke-linecap="round"/>
<path d="M454.0 212.0 v33" stroke="#B79C7A" stroke-width="3" opacity=".6" stroke-linecap="round"/>
<path d="M474.0 212.0 v33" stroke="#B79C7A" stroke-width="3" opacity=".6" stroke-linecap="round"/>
<path d="M494.0 212.0 v33" stroke="#B79C7A" stroke-width="3" opacity=".6" stroke-linecap="round"/>
<path d="M514.0 212.0 v33" stroke="#B79C7A" stroke-width="3" opacity=".6" stroke-linecap="round"/>
<path d="M241.0 222.0 h125.2" stroke="#B79C7A" stroke-width="3" opacity=".7" stroke-linecap="round"/>
<path d="M241.0 232.0 h125.2" stroke="#B79C7A" stroke-width="2" opacity=".45"/>
<path d="M241.0 222.0 v23" stroke="#B79C7A" stroke-width="3" opacity=".6" stroke-linecap="round"/>
<path d="M282.7 222.0 v23" stroke="#B79C7A" stroke-width="3" opacity=".6" stroke-linecap="round"/>
<path d="M324.4 222.0 v23" stroke="#B79C7A" stroke-width="3" opacity=".6" stroke-linecap="round"/>
<path d="M366.2 222.0 v23" stroke="#B79C7A" stroke-width="3" opacity=".6" stroke-linecap="round"/>
<g transform="translate(189.0,478.0) scale(0.8)"><ellipse cx="0" cy="0" rx="25" ry="16" fill="#7F9370"/><ellipse cx="-13" cy="-6" rx="16" ry="12" fill="#63775A"/><ellipse cx="12" cy="-5" rx="14" ry="11" fill="#7F9370"/></g>
<g transform="translate(613.0,482.0) scale(0.68)"><ellipse cx="0" cy="0" rx="25" ry="16" fill="#7F9370"/><ellipse cx="-13" cy="-6" rx="16" ry="12" fill="#63775A"/><ellipse cx="12" cy="-5" rx="14" ry="11" fill="#7F9370"/></g>
<path d="M348.0 460.0 h72 l26 56.0 h-124 z" fill="#DCC9AB" opacity=".75"/>
<rect x="0" y="516.0" width="800" height="84.0" fill="#EADCC4"/>
<rect x="0" y="516.0" width="800" height="9" fill="#C07A46"/>
<path d="M0 525.0 v75.0" stroke="#DCC9AB" stroke-width="2" opacity=".3"/>
<path d="M58 525.0 v75.0" stroke="#DCC9AB" stroke-width="2" opacity=".3"/>
<path d="M116 525.0 v75.0" stroke="#DCC9AB" stroke-width="2" opacity=".3"/>
<path d="M174 525.0 v75.0" stroke="#DCC9AB" stroke-width="2" opacity=".3"/>
<path d="M232 525.0 v75.0" stroke="#DCC9AB" stroke-width="2" opacity=".3"/>
<path d="M290 525.0 v75.0" stroke="#DCC9AB" stroke-width="2" opacity=".3"/>
<path d="M348 525.0 v75.0" stroke="#DCC9AB" stroke-width="2" opacity=".3"/>
<path d="M406 525.0 v75.0" stroke="#DCC9AB" stroke-width="2" opacity=".3"/>
<path d="M464 525.0 v75.0" stroke="#DCC9AB" stroke-width="2" opacity=".3"/>
<path d="M522 525.0 v75.0" stroke="#DCC9AB" stroke-width="2" opacity=".3"/>
<path d="M580 525.0 v75.0" stroke="#DCC9AB" stroke-width="2" opacity=".3"/>
<path d="M638 525.0 v75.0" stroke="#DCC9AB" stroke-width="2" opacity=".3"/>
<path d="M696 525.0 v75.0" stroke="#DCC9AB" stroke-width="2" opacity=".3"/>
<path d="M754 525.0 v75.0" stroke="#DCC9AB" stroke-width="2" opacity=".3"/>
<path d="M0 554.0 H800" stroke="#DCC9AB" stroke-width="2" opacity=".3"/>
<path d="M0 584.0 H800" stroke="#DCC9AB" stroke-width="2" opacity=".3"/>
<rect x="320.0" y="508.0" width="128" height="92.0" fill="#7C5F45"/>
<path d="M332.0 518.0 v82.0" stroke="#A98A68" stroke-width="3.5" opacity=".5"/>
<path d="M349.5 518.0 v82.0" stroke="#A98A68" stroke-width="3.5" opacity=".5"/>
<path d="M367.0 518.0 v82.0" stroke="#A98A68" stroke-width="3.5" opacity=".5"/>
<path d="M384.5 518.0 v82.0" stroke="#A98A68" stroke-width="3.5" opacity=".5"/>
<path d="M402.0 518.0 v82.0" stroke="#A98A68" stroke-width="3.5" opacity=".5"/>
<path d="M419.5 518.0 v82.0" stroke="#A98A68" stroke-width="3.5" opacity=".5"/>
<path d="M437.0 518.0 v82.0" stroke="#A98A68" stroke-width="3.5" opacity=".5"/>
<path d="M384.0 508.0 v92.0" stroke="#5E442F" stroke-width="3" opacity=".6"/>
<rect x="316.0" y="508.0" width="136" height="7" rx="2" fill="#C07A46"/>
<rect x="300.0" y="496.0" width="16" height="104.0" fill="#EADCC4"/>
<rect x="297.0" y="496.0" width="22" height="8" rx="3" fill="#C07A46"/>
<rect x="452.0" y="496.0" width="16" height="104.0" fill="#EADCC4"/>
<rect x="449.0" y="496.0" width="22" height="8" rx="3" fill="#C07A46"/>
</g></svg>