<svg xmlns="http://www.w3.org/2000/svg" viewBox="0 0 800 600" role="img" aria-label="Plan du rez-de-chaussée, modèle Gorée">
<defs><pattern id="hach" width="9" height="9" patternUnits="userSpaceOnUse" patternTransform="rotate(45)"><path d="M0 0v9" stroke="#A79C8D" stroke-width="1" opacity=".55"/></pattern></defs>
<rect width="800" height="600" fill="#FAF8F4"/>
<g stroke="#D8D0C4" stroke-width=".5" opacity=".45">
<path d="M0 0V600"/>
<path d="M40 0V600"/>
<path d="M80 0V600"/>
<path d="M120 0V600"/>
<path d="M160 0V600"/>
<path d="M200 0V600"/>
<path d="M240 0V600"/>
<path d="M280 0V600"/>
<path d="M320 0V600"/>
<path d="M360 0V600"/>
<path d="M400 0V600"/>
<path d="M440 0V600"/>
<path d="M480 0V600"/>
<path d="M520 0V600"/>
<path d="M560 0V600"/>
<path d="M600 0V600"/>
<path d="M640 0V600"/>
<path d="M680 0V600"/>
<path d="M720 0V600"/>
<path d="M760 0V600"/>
<path d="M0 0H800"/>
<path d="M0 40H800"/>
<path d="M0 80H800"/>
<path d="M0 120H800"/>
<path d="M0 160H800"/>
<path d="M0 200H800"/>
<path d="M0 240H800"/>
<path d="M0 280H800"/>
<path d="M0 320H800"/>
<path d="M0 360H800"/>
<path d="M0 400H800"/>
<path d="M0 440H800"/>
<path d="M0 480H800"/>
<path d="M0 520H800"/>
<path d="M0 560H800"/>
</g>
<rect x="152.6" y="74.0" width="286.44" height="286.44" fill="#F2EDE4"/>
<rect x="152.6" y="360.44" width="286.44" height="147.56" fill="#F2EDE4"/>
<rect x="439.04" y="74.0" width="135.41" height="260.4" fill="#EAE3D6"/>
<rect x="439.04" y="334.4" width="135.41" height="173.6" fill="#EAE3D6"/>
<rect x="574.45" y="74.0" width="98.95" height="434.0" fill="#EAE3D6"/>
<path d="M574.45 74.0h98.95v434.0h-98.95z" fill="url(#hach)"/>
<g stroke="#1A1713" stroke-linecap="square">
<rect x="152.6" y="74.0" width="286.44" height="286.44" fill="none" stroke-width="5.0"/>
<rect x="152.6" y="360.44" width="286.44" height="147.56" fill="none" stroke-width="5.0"/>
<rect x="439.04" y="74.0" width="135.41" height="260.4" fill="none" stroke-width="5.0"/>
<rect x="439.04" y="334.4" width="135.41" height="173.6" fill="none" stroke-width="5.0"/>
<rect x="574.45" y="74.0" width="98.95" height="434.0" fill="none" stroke-width="5.0"/>
</g>
<rect x="152.6" y="74.0" width="520.8" height="434.0" fill="none" stroke="#1A1713" stroke-width="9.0"/>
<rect x="299.2" y="69.5" width="54" height="9.0" fill="#FAF8F4"/><path d="M299.2 70.5h54M299.2 77.5h54" stroke="#1A1713" stroke-width="1.6"/>
<rect x="299.2" y="503.5" width="54" height="9.0" fill="#FAF8F4"/><path d="M299.2 504.5h54M299.2 511.5h54" stroke="#1A1713" stroke-width="1.6"/>
<rect x="472.8" y="69.5" width="54" height="9.0" fill="#FAF8F4"/><path d="M472.8 70.5h54M472.8 77.5h54" stroke="#1A1713" stroke-width="1.6"/>
<rect x="472.8" y="503.5" width="54" height="9.0" fill="#FAF8F4"/><path d="M472.8 504.5h54M472.8 511.5h54" stroke="#1A1713" stroke-width="1.6"/>
<rect x="148.1" y="191.67" width="9.0" height="54" fill="#FAF8F4"/><path d="M149.1 191.67v54M156.1 191.67v54" stroke="#1A1713" stroke-width="1.6"/>
<rect x="668.9" y="191.67" width="9.0" height="54" fill="#FAF8F4"/><path d="M669.9 191.67v54M676.9 191.67v54" stroke="#1A1713" stroke-width="1.6"/>
<rect x="148.1" y="336.33" width="9.0" height="54" fill="#FAF8F4"/><path d="M149.1 336.33v54M156.1 336.33v54" stroke="#1A1713" stroke-width="1.6"/>
<rect x="668.9" y="336.33" width="9.0" height="54" fill="#FAF8F4"/><path d="M669.9 336.33v54M676.9 336.33v54" stroke="#1A1713" stroke-width="1.6"/>
<rect x="280.82" y="355.44" width="30" height="10.0" fill="#FAF8F4"/><path d="M280.82 330.44 v30" stroke="#1A1713" stroke-width="2"/><path d="M280.82 330.44 a30 30 0 0 1 30 30" fill="none" stroke="#6E6459" stroke-width="1.1" opacity=".75"/>
<rect x="434.04" y="189.2" width="10.0" height="30" fill="#FAF8F4"/><path d="M409.04 189.2 h30" stroke="#1A1713" stroke-width="2"/><path d="M409.04 189.2 a30 30 0 0 0 30 30" fill="none" stroke="#6E6459" stroke-width="1.1" opacity=".75"/>
<rect x="434.04" y="406.2" width="10.0" height="30" fill="#FAF8F4"/><path d="M409.04 406.2 h30" stroke="#1A1713" stroke-width="2"/><path d="M409.04 406.2 a30 30 0 0 0 30 30" fill="none" stroke="#6E6459" stroke-width="1.1" opacity=".75"/>
<rect x="491.74" y="329.4" width="30" height="10.0" fill="#FAF8F4"/><path d="M491.74 304.4 v30" stroke="#1A1713" stroke-width="2"/><path d="M491.74 304.4 a30 30 0 0 1 30 30" fill="none" stroke="#6E6459" stroke-width="1.1" opacity=".75"/>
<rect x="569.45" y="276.0" width="10.0" height="30" fill="#FAF8F4"/><path d="M544.45 276.0 h30" stroke="#1A1713" stroke-width="2"/><path d="M544.45 276.0 a30 30 0 0 0 30 30" fill="none" stroke="#6E6459" stroke-width="1.1" opacity=".75"/>
<rect x="289.84" y="503.0" width="38" height="10.0" fill="#FAF8F4"/><path d="M289.84 546.0 v-38" stroke="#1A1713" stroke-width="2"/><path d="M289.84 546.0 a38 38 0 0 0 38 -38" fill="none" stroke="#6E6459" stroke-width="1.1" opacity=".75"/>
<text x="295.82" y="214.22" text-anchor="middle" font-family="'IBM Plex Mono','SFMono-Regular',Menlo,monospace" font-size="11.5" font-weight="500" fill="#1A1713" letter-spacing=".08em">SÉJOUR</text>
<text x="295.82" y="229.22" text-anchor="middle" font-family="'IBM Plex Mono','SFMono-Regular',Menlo,monospace" font-size="10.5" fill="#6E6459">24 m²</text>
<text x="295.82" y="431.22" text-anchor="middle" font-family="'IBM Plex Mono','SFMono-Regular',Menlo,monospace" font-size="11.5" font-weight="500" fill="#1A1713" letter-spacing=".08em">ENTRÉE</text>
<text x="295.82" y="446.22" text-anchor="middle" font-family="'IBM Plex Mono','SFMono-Regular',Menlo,monospace" font-size="10.5" fill="#6E6459">6 m²</text>
<text x="506.74" y="201.2" text-anchor="middle" font-family="'IBM Plex Mono','SFMono-Regular',Menlo,monospace" font-size="11.5" font-weight="500" fill="#1A1713" letter-spacing=".08em">CUISINE</text>
<text x="506.74" y="216.2" text-anchor="middle" font-family="'IBM Plex Mono','SFMono-Regular',Menlo,monospace" font-size="10.5" fill="#6E6459">10 m²</text>
<text x="506.74" y="418.2" text-anchor="middle" font-family="'IBM Plex Mono','SFMono-Regular',Menlo,monospace" font-size="11.5" font-weight="500" fill="#1A1713" letter-spacing=".08em">WC</text>
<text x="506.74" y="433.2" text-anchor="middle" font-family="'IBM Plex Mono','SFMono-Regular',Menlo,monospace" font-size="10.5" fill="#6E6459">3 m²</text>
<text x="623.92" y="288.0" text-anchor="middle" font-family="'IBM Plex Mono','SFMono-Regular',Menlo,monospace" font-size="11.5" font-weight="500" fill="#1A1713" letter-spacing=".08em">PATIO</text>
<text x="623.92" y="303.0" text-anchor="middle" font-family="'IBM Plex Mono','SFMono-Regular',Menlo,monospace" font-size="10.5" fill="#6E6459">6 m²</text>
<g stroke="#6E6459" stroke-width="1" fill="none"><path d="M152.6 554.0h520.8"/><path d="M152.6 549.0v10M673.4 549.0v10"/></g><text x="413.0" y="545.0" text-anchor="middle" font-family="'IBM Plex Mono','SFMono-Regular',Menlo,monospace" font-size="11" fill="#6E6459">9.0 m</text>
<g stroke="#6E6459" stroke-width="1" fill="none"><path d="M112.6 74.0v434.0"/><path d="M107.6 74.0h10M107.6 508.0h10"/></g><text x="103.6" y="291.0" text-anchor="middle" font-family="'IBM Plex Mono','SFMono-Regular',Menlo,monospace" font-size="11" fill="#6E6459" transform="rotate(-90 103.6 291.0)">7.5 m</text>
<text x="30" y="40" font-family="'IBM Plex Mono','SFMono-Regular',Menlo,monospace" font-size="12" font-weight="600" fill="#1A1713" letter-spacing=".14em">GORÉE</text>
<text x="30" y="58" font-family="'IBM Plex Mono','SFMono-Regular',Menlo,monospace" font-size="11" fill="#6E6459" letter-spacing=".06em">REZ-DE-CHAUSSÉE</text>
<path d="M30 68h120" stroke="#D8D0C4" stroke-width="1"/>
<text x="770" y="40" text-anchor="end" font-family="'IBM Plex Mono','SFMono-Regular',Menlo,monospace" font-size="11" fill="#A79C8D" letter-spacing=".06em">ÉCH. 1:100</text>
<g stroke="#6E6459" fill="none" stroke-width="1.3"><circle cx="752" cy="548" r="15"/><path d="M752 548v-19l5 7h-10l5-7" fill="#1A1713"/></g>
<text x="752" y="576" text-anchor="middle" font-family="'IBM Plex Mono','SFMono-Regular',Menlo,monospace" font-size="10" fill="#6E6459">N</text>
</svg>