<svg xmlns="http://www.w3.org/2000/svg" viewBox="0 0 800 600" role="img" aria-label="Plan du rez-de-chaussée locatif, modèle Saloum">
<defs><pattern id="hach" width="9" height="9" patternUnits="userSpaceOnUse" patternTransform="rotate(45)"><path d="M0 0v9" stroke="#9AA8C0" stroke-width="1" opacity=".55"/></pattern></defs>
<rect width="800" height="600" fill="#F8FAFD"/>
<g stroke="#D3DCEA" stroke-width=".5" opacity=".45">
<path d="M0 0V600"/>
<path d="M40 0V600"/>
<path d="M80 0V600"/>
<path d="M120 0V600"/>
<path d="M160 0V600"/>
<path d="M200 0V600"/>
<path d="M240 0V600"/>
<path d="M280 0V600"/>
<path d="M320 0V600"/>
<path d="M360 0V600"/>
<path d="M400 0V600"/>
<path d="M440 0V600"/>
<path d="M480 0V600"/>
<path d="M520 0V600"/>
<path d="M560 0V600"/>
<path d="M600 0V600"/>
<path d="M640 0V600"/>
<path d="M680 0V600"/>
<path d="M720 0V600"/>
<path d="M760 0V600"/>
<path d="M0 0H800"/>
<path d="M0 40H800"/>
<path d="M0 80H800"/>
<path d="M0 120H800"/>
<path d="M0 160H800"/>
<path d="M0 200H800"/>
<path d="M0 240H800"/>
<path d="M0 280H800"/>
<path d="M0 320H800"/>
<path d="M0 360H800"/>
<path d="M0 400H800"/>
<path d="M0 440H800"/>
<path d="M0 480H800"/>
<path d="M0 520H800"/>
<path d="M0 560H800"/>
</g>
<rect x="123.67" y="74.0" width="208.32" height="251.72" fill="#FFFFFF"/>
<rect x="123.67" y="325.72" width="208.32" height="182.28" fill="#EAF1FB"/>
<rect x="331.99" y="74.0" width="208.32" height="251.72" fill="#FFFFFF"/>
<rect x="331.99" y="325.72" width="208.32" height="182.28" fill="#EAF1FB"/>
<rect x="540.31" y="74.0" width="162.03" height="225.68" fill="#FFFFFF"/>
<rect x="540.31" y="299.68" width="162.03" height="208.32" fill="#FFFFFF"/>
<g stroke="#14213D" stroke-linecap="square">
<rect x="123.67" y="74.0" width="208.32" height="251.72" fill="none" stroke-width="5.0"/>
<rect x="123.67" y="325.72" width="208.32" height="182.28" fill="none" stroke-width="5.0"/>
<rect x="331.99" y="74.0" width="208.32" height="251.72" fill="none" stroke-width="5.0"/>
<rect x="331.99" y="325.72" width="208.32" height="182.28" fill="none" stroke-width="5.0"/>
<rect x="540.31" y="74.0" width="162.03" height="225.68" fill="none" stroke-width="5.0"/>
<rect x="540.31" y="299.68" width="162.03" height="208.32" fill="none" stroke-width="5.0"/>
</g>
<rect x="123.67" y="74.0" width="578.67" height="434.0" fill="none" stroke="#14213D" stroke-width="9.0"/>
<rect x="212.4" y="69.5" width="54" height="9.0" fill="#F8FAFD"/><path d="M212.4 70.5h54M212.4 77.5h54" stroke="#14213D" stroke-width="1.6"/>
<rect x="212.4" y="503.5" width="54" height="9.0" fill="#F8FAFD"/><path d="M212.4 504.5h54M212.4 511.5h54" stroke="#14213D" stroke-width="1.6"/>
<rect x="328.13" y="69.5" width="54" height="9.0" fill="#F8FAFD"/><path d="M328.13 70.5h54M328.13 77.5h54" stroke="#14213D" stroke-width="1.6"/>
<rect x="328.13" y="503.5" width="54" height="9.0" fill="#F8FAFD"/><path d="M328.13 504.5h54M328.13 511.5h54" stroke="#14213D" stroke-width="1.6"/>
<rect x="443.87" y="69.5" width="54" height="9.0" fill="#F8FAFD"/><path d="M443.87 70.5h54M443.87 77.5h54" stroke="#14213D" stroke-width="1.6"/>
<rect x="443.87" y="503.5" width="54" height="9.0" fill="#F8FAFD"/><path d="M443.87 504.5h54M443.87 511.5h54" stroke="#14213D" stroke-width="1.6"/>
<rect x="559.6" y="69.5" width="54" height="9.0" fill="#F8FAFD"/><path d="M559.6 70.5h54M559.6 77.5h54" stroke="#14213D" stroke-width="1.6"/>
<rect x="559.6" y="503.5" width="54" height="9.0" fill="#F8FAFD"/><path d="M559.6 504.5h54M559.6 511.5h54" stroke="#14213D" stroke-width="1.6"/>
<rect x="119.17" y="191.67" width="9.0" height="54" fill="#F8FAFD"/><path d="M120.17 191.67v54M127.17 191.67v54" stroke="#14213D" stroke-width="1.6"/>
<rect x="697.83" y="191.67" width="9.0" height="54" fill="#F8FAFD"/><path d="M698.83 191.67v54M705.83 191.67v54" stroke="#14213D" stroke-width="1.6"/>
<rect x="119.17" y="336.33" width="9.0" height="54" fill="#F8FAFD"/><path d="M120.17 336.33v54M127.17 336.33v54" stroke="#14213D" stroke-width="1.6"/>
<rect x="697.83" y="336.33" width="9.0" height="54" fill="#F8FAFD"/><path d="M698.83 336.33v54M705.83 336.33v54" stroke="#14213D" stroke-width="1.6"/>
<rect x="212.83" y="320.72" width="30" height="10.0" fill="#F8FAFD"/><path d="M212.83 295.72 v30" stroke="#14213D" stroke-width="2"/><path d="M212.83 295.72 a30 30 0 0 1 30 30" fill="none" stroke="#5E6B82" stroke-width="1.1" opacity=".75"/>
<rect x="326.99" y="184.86" width="10.0" height="30" fill="#F8FAFD"/><path d="M301.99 184.86 h30" stroke="#14213D" stroke-width="2"/><path d="M301.99 184.86 a30 30 0 0 0 30 30" fill="none" stroke="#5E6B82" stroke-width="1.1" opacity=".75"/>
<rect x="326.99" y="401.86" width="10.0" height="30" fill="#F8FAFD"/><path d="M301.99 401.86 h30" stroke="#14213D" stroke-width="2"/><path d="M301.99 401.86 a30 30 0 0 0 30 30" fill="none" stroke="#5E6B82" stroke-width="1.1" opacity=".75"/>
<rect x="421.15" y="320.72" width="30" height="10.0" fill="#F8FAFD"/><path d="M421.15 295.72 v30" stroke="#14213D" stroke-width="2"/><path d="M421.15 295.72 a30 30 0 0 1 30 30" fill="none" stroke="#5E6B82" stroke-width="1.1" opacity=".75"/>
<rect x="535.31" y="171.84" width="10.0" height="30" fill="#F8FAFD"/><path d="M510.31 171.84 h30" stroke="#14213D" stroke-width="2"/><path d="M510.31 171.84 a30 30 0 0 0 30 30" fill="none" stroke="#5E6B82" stroke-width="1.1" opacity=".75"/>
<rect x="535.31" y="388.84" width="10.0" height="30" fill="#F8FAFD"/><path d="M510.31 388.84 h30" stroke="#14213D" stroke-width="2"/><path d="M510.31 388.84 a30 30 0 0 0 30 30" fill="none" stroke="#5E6B82" stroke-width="1.1" opacity=".75"/>
<rect x="606.32" y="294.68" width="30" height="10.0" fill="#F8FAFD"/><path d="M606.32 269.68 v30" stroke="#14213D" stroke-width="2"/><path d="M606.32 269.68 a30 30 0 0 1 30 30" fill="none" stroke="#5E6B82" stroke-width="1.1" opacity=".75"/>
<rect x="394.0" y="503.0" width="38" height="10.0" fill="#F8FAFD"/><path d="M394.0 546.0 v-38" stroke="#14213D" stroke-width="2"/><path d="M394.0 546.0 a38 38 0 0 0 38 -38" fill="none" stroke="#5E6B82" stroke-width="1.1" opacity=".75"/>
<text x="227.83" y="196.86" text-anchor="middle" font-family="Figtree,system-ui,-apple-system,'Segoe UI',Roboto,Helvetica,Arial,sans-serif" font-size="11.5" font-weight="500" fill="#14213D" letter-spacing=".08em">STUDIO 1</text>
<text x="227.83" y="211.86" text-anchor="middle" font-family="Figtree,system-ui,-apple-system,'Segoe UI',Roboto,Helvetica,Arial,sans-serif" font-size="10.5" fill="#5E6B82">42 m²</text>
<text x="227.83" y="413.86" text-anchor="middle" font-family="Figtree,system-ui,-apple-system,'Segoe UI',Roboto,Helvetica,Arial,sans-serif" font-size="11.5" font-weight="500" fill="#14213D" letter-spacing=".08em">SALLE D'EAU</text>
<text x="227.83" y="428.86" text-anchor="middle" font-family="Figtree,system-ui,-apple-system,'Segoe UI',Roboto,Helvetica,Arial,sans-serif" font-size="10.5" fill="#5E6B82">4 m²</text>
<text x="436.15" y="196.86" text-anchor="middle" font-family="Figtree,system-ui,-apple-system,'Segoe UI',Roboto,Helvetica,Arial,sans-serif" font-size="11.5" font-weight="500" fill="#14213D" letter-spacing=".08em">STUDIO 2</text>
<text x="436.15" y="211.86" text-anchor="middle" font-family="Figtree,system-ui,-apple-system,'Segoe UI',Roboto,Helvetica,Arial,sans-serif" font-size="10.5" fill="#5E6B82">42 m²</text>
<text x="436.15" y="413.86" text-anchor="middle" font-family="Figtree,system-ui,-apple-system,'Segoe UI',Roboto,Helvetica,Arial,sans-serif" font-size="11.5" font-weight="500" fill="#14213D" letter-spacing=".08em">SALLE D'EAU</text>
<text x="436.15" y="428.86" text-anchor="middle" font-family="Figtree,system-ui,-apple-system,'Segoe UI',Roboto,Helvetica,Arial,sans-serif" font-size="10.5" fill="#5E6B82">4 m²</text>
<text x="621.32" y="183.84" text-anchor="middle" font-family="Figtree,system-ui,-apple-system,'Segoe UI',Roboto,Helvetica,Arial,sans-serif" font-size="11.5" font-weight="500" fill="#14213D" letter-spacing=".08em">HALL</text>
<text x="621.32" y="198.84" text-anchor="middle" font-family="Figtree,system-ui,-apple-system,'Segoe UI',Roboto,Helvetica,Arial,sans-serif" font-size="10.5" fill="#5E6B82">8 m²</text>
<text x="621.32" y="400.84" text-anchor="middle" font-family="Figtree,system-ui,-apple-system,'Segoe UI',Roboto,Helvetica,Arial,sans-serif" font-size="11.5" font-weight="500" fill="#14213D" letter-spacing=".08em">GARAGE</text>
<text x="621.32" y="415.84" text-anchor="middle" font-family="Figtree,system-ui,-apple-system,'Segoe UI',Roboto,Helvetica,Arial,sans-serif" font-size="10.5" fill="#5E6B82">18 m²</text>
<g stroke="#5E6B82" stroke-width="1" fill="none"><path d="M123.67 554.0h578.67"/><path d="M123.67 549.0v10M702.33 549.0v10"/></g><text x="413.0" y="545.0" text-anchor="middle" font-family="Figtree,system-ui,-apple-system,'Segoe UI',Roboto,Helvetica,Arial,sans-serif" font-size="11" fill="#5E6B82">14.0 m</text>
<g stroke="#5E6B82" stroke-width="1" fill="none"><path d="M83.67 74.0v434.0"/><path d="M78.67 74.0h10M78.67 508.0h10"/></g><text x="74.67" y="291.0" text-anchor="middle" font-family="Figtree,system-ui,-apple-system,'Segoe UI',Roboto,Helvetica,Arial,sans-serif" font-size="11" fill="#5E6B82" transform="rotate(-90 74.67 291.0)">10.5 m</text>
<text x="30" y="40" font-family="Figtree,system-ui,-apple-system,'Segoe UI',Roboto,Helvetica,Arial,sans-serif" font-size="12" font-weight="600" fill="#14213D" letter-spacing=".14em">SALOUM</text>
<text x="30" y="58" font-family="Figtree,system-ui,-apple-system,'Segoe UI',Roboto,Helvetica,Arial,sans-serif" font-size="11" fill="#5E6B82" letter-spacing=".06em">REZ-DE-CHAUSSÉE LOCATIF</text>
<path d="M30 68h120" stroke="#D3DCEA" stroke-width="1"/>
<text x="770" y="40" text-anchor="end" font-family="Figtree,system-ui,-apple-system,'Segoe UI',Roboto,Helvetica,Arial,sans-serif" font-size="11" fill="#9AA8C0" letter-spacing=".06em">ÉCH. 1:100</text>
<g stroke="#5E6B82" fill="none" stroke-width="1.3"><circle cx="752" cy="548" r="15"/><path d="M752 548v-19l5 7h-10l5-7" fill="#14213D"/></g>
<text x="752" y="576" text-anchor="middle" font-family="Figtree,system-ui,-apple-system,'Segoe UI',Roboto,Helvetica,Arial,sans-serif" font-size="10" fill="#5E6B82">N</text>
</svg>