<svg xmlns="http://www.w3.org/2000/svg" viewBox="0 0 800 600" role="img" aria-label="Plan du rez-de-chaussée, modèle Teranga">
<defs><pattern id="hach" width="9" height="9" patternUnits="userSpaceOnUse" patternTransform="rotate(45)"><path d="M0 0v9" stroke="#A79C8D" stroke-width="1" opacity=".55"/></pattern></defs>
<rect width="800" height="600" fill="#FAF8F4"/>
<g stroke="#D8D0C4" stroke-width=".5" opacity=".45">
<path d="M0 0V600"/>
<path d="M40 0V600"/>
<path d="M80 0V600"/>
<path d="M120 0V600"/>
<path d="M160 0V600"/>
<path d="M200 0V600"/>
<path d="M240 0V600"/>
<path d="M280 0V600"/>
<path d="M320 0V600"/>
<path d="M360 0V600"/>
<path d="M400 0V600"/>
<path d="M440 0V600"/>
<path d="M480 0V600"/>
<path d="M520 0V600"/>
<path d="M560 0V600"/>
<path d="M600 0V600"/>
<path d="M640 0V600"/>
<path d="M680 0V600"/>
<path d="M720 0V600"/>
<path d="M760 0V600"/>
<path d="M0 0H800"/>
<path d="M0 40H800"/>
<path d="M0 80H800"/>
<path d="M0 120H800"/>
<path d="M0 160H800"/>
<path d="M0 200H800"/>
<path d="M0 240H800"/>
<path d="M0 280H800"/>
<path d="M0 320H800"/>
<path d="M0 360H800"/>
<path d="M0 400H800"/>
<path d="M0 440H800"/>
<path d="M0 480H800"/>
<path d="M0 520H800"/>
<path d="M0 560H800"/>
</g>
<rect x="97.36" y="74.0" width="277.76" height="269.08" fill="#F2EDE4"/>
<rect x="97.36" y="343.08" width="277.76" height="164.92" fill="#EAE3D6"/>
<rect x="375.12" y="74.0" width="189.38" height="251.72" fill="#F2EDE4"/>
<rect x="375.12" y="325.72" width="189.38" height="182.28" fill="#F2EDE4"/>
<rect x="564.51" y="74.0" width="164.13" height="147.56" fill="#EAE3D6"/>
<rect x="564.51" y="221.56" width="164.13" height="286.44" fill="#F2EDE4"/>
<g stroke="#1A1713" stroke-linecap="square">
<rect x="97.36" y="74.0" width="277.76" height="269.08" fill="none" stroke-width="5.0"/>
<rect x="97.36" y="343.08" width="277.76" height="164.92" fill="none" stroke-width="5.0"/>
<rect x="375.12" y="74.0" width="189.38" height="251.72" fill="none" stroke-width="5.0"/>
<rect x="375.12" y="325.72" width="189.38" height="182.28" fill="none" stroke-width="5.0"/>
<rect x="564.51" y="74.0" width="164.13" height="147.56" fill="none" stroke-width="5.0"/>
<rect x="564.51" y="221.56" width="164.13" height="286.44" fill="none" stroke-width="5.0"/>
</g>
<rect x="97.36" y="74.0" width="631.27" height="434.0" fill="none" stroke="#1A1713" stroke-width="9.0"/>
<rect x="196.62" y="69.5" width="54" height="9.0" fill="#FAF8F4"/><path d="M196.62 70.5h54M196.62 77.5h54" stroke="#1A1713" stroke-width="1.6"/>
<rect x="196.62" y="503.5" width="54" height="9.0" fill="#FAF8F4"/><path d="M196.62 504.5h54M196.62 511.5h54" stroke="#1A1713" stroke-width="1.6"/>
<rect x="322.87" y="69.5" width="54" height="9.0" fill="#FAF8F4"/><path d="M322.87 70.5h54M322.87 77.5h54" stroke="#1A1713" stroke-width="1.6"/>
<rect x="322.87" y="503.5" width="54" height="9.0" fill="#FAF8F4"/><path d="M322.87 504.5h54M322.87 511.5h54" stroke="#1A1713" stroke-width="1.6"/>
<rect x="449.13" y="69.5" width="54" height="9.0" fill="#FAF8F4"/><path d="M449.13 70.5h54M449.13 77.5h54" stroke="#1A1713" stroke-width="1.6"/>
<rect x="449.13" y="503.5" width="54" height="9.0" fill="#FAF8F4"/><path d="M449.13 504.5h54M449.13 511.5h54" stroke="#1A1713" stroke-width="1.6"/>
<rect x="575.38" y="69.5" width="54" height="9.0" fill="#FAF8F4"/><path d="M575.38 70.5h54M575.38 77.5h54" stroke="#1A1713" stroke-width="1.6"/>
<rect x="575.38" y="503.5" width="54" height="9.0" fill="#FAF8F4"/><path d="M575.38 504.5h54M575.38 511.5h54" stroke="#1A1713" stroke-width="1.6"/>
<rect x="92.86" y="155.5" width="9.0" height="54" fill="#FAF8F4"/><path d="M93.86 155.5v54M100.86 155.5v54" stroke="#1A1713" stroke-width="1.6"/>
<rect x="724.14" y="155.5" width="9.0" height="54" fill="#FAF8F4"/><path d="M725.14 155.5v54M732.14 155.5v54" stroke="#1A1713" stroke-width="1.6"/>
<rect x="92.86" y="264.0" width="9.0" height="54" fill="#FAF8F4"/><path d="M93.86 264.0v54M100.86 264.0v54" stroke="#1A1713" stroke-width="1.6"/>
<rect x="724.14" y="264.0" width="9.0" height="54" fill="#FAF8F4"/><path d="M725.14 264.0v54M732.14 264.0v54" stroke="#1A1713" stroke-width="1.6"/>
<rect x="92.86" y="372.5" width="9.0" height="54" fill="#FAF8F4"/><path d="M93.86 372.5v54M100.86 372.5v54" stroke="#1A1713" stroke-width="1.6"/>
<rect x="724.14" y="372.5" width="9.0" height="54" fill="#FAF8F4"/><path d="M725.14 372.5v54M732.14 372.5v54" stroke="#1A1713" stroke-width="1.6"/>
<rect x="221.24" y="338.08" width="30" height="10.0" fill="#FAF8F4"/><path d="M221.24 313.08 v30" stroke="#1A1713" stroke-width="2"/><path d="M221.24 313.08 a30 30 0 0 1 30 30" fill="none" stroke="#6E6459" stroke-width="1.1" opacity=".75"/>
<rect x="370.12" y="184.86" width="10.0" height="30" fill="#FAF8F4"/><path d="M345.12 184.86 h30" stroke="#1A1713" stroke-width="2"/><path d="M345.12 184.86 a30 30 0 0 0 30 30" fill="none" stroke="#6E6459" stroke-width="1.1" opacity=".75"/>
<rect x="370.12" y="401.86" width="10.0" height="30" fill="#FAF8F4"/><path d="M345.12 401.86 h30" stroke="#1A1713" stroke-width="2"/><path d="M345.12 401.86 a30 30 0 0 0 30 30" fill="none" stroke="#6E6459" stroke-width="1.1" opacity=".75"/>
<rect x="454.81" y="320.72" width="30" height="10.0" fill="#FAF8F4"/><path d="M454.81 295.72 v30" stroke="#1A1713" stroke-width="2"/><path d="M454.81 295.72 a30 30 0 0 1 30 30" fill="none" stroke="#6E6459" stroke-width="1.1" opacity=".75"/>
<rect x="559.51" y="132.78" width="10.0" height="30" fill="#FAF8F4"/><path d="M534.51 132.78 h30" stroke="#1A1713" stroke-width="2"/><path d="M534.51 132.78 a30 30 0 0 0 30 30" fill="none" stroke="#6E6459" stroke-width="1.1" opacity=".75"/>
<rect x="559.51" y="349.78" width="10.0" height="30" fill="#FAF8F4"/><path d="M534.51 349.78 h30" stroke="#1A1713" stroke-width="2"/><path d="M534.51 349.78 a30 30 0 0 0 30 30" fill="none" stroke="#6E6459" stroke-width="1.1" opacity=".75"/>
<rect x="631.57" y="216.56" width="30" height="10.0" fill="#FAF8F4"/><path d="M631.57 191.56 v30" stroke="#1A1713" stroke-width="2"/><path d="M631.57 191.56 a30 30 0 0 1 30 30" fill="none" stroke="#6E6459" stroke-width="1.1" opacity=".75"/>
<rect x="217.24" y="503.0" width="38" height="10.0" fill="#FAF8F4"/><path d="M217.24 546.0 v-38" stroke="#1A1713" stroke-width="2"/><path d="M217.24 546.0 a38 38 0 0 0 38 -38" fill="none" stroke="#6E6459" stroke-width="1.1" opacity=".75"/>
<text x="236.24" y="205.54" text-anchor="middle" font-family="'IBM Plex Mono','SFMono-Regular',Menlo,monospace" font-size="11.5" font-weight="500" fill="#1A1713" letter-spacing=".08em">SÉJOUR</text>
<text x="236.24" y="220.54" text-anchor="middle" font-family="'IBM Plex Mono','SFMono-Regular',Menlo,monospace" font-size="10.5" fill="#6E6459">38 m²</text>
<text x="236.24" y="422.54" text-anchor="middle" font-family="'IBM Plex Mono','SFMono-Regular',Menlo,monospace" font-size="11.5" font-weight="500" fill="#1A1713" letter-spacing=".08em">CUISINE</text>
<text x="236.24" y="437.54" text-anchor="middle" font-family="'IBM Plex Mono','SFMono-Regular',Menlo,monospace" font-size="10.5" fill="#6E6459">14 m²</text>
<text x="469.81" y="196.86" text-anchor="middle" font-family="'IBM Plex Mono','SFMono-Regular',Menlo,monospace" font-size="11.5" font-weight="500" fill="#1A1713" letter-spacing=".08em">SALON INVITÉS</text>
<text x="469.81" y="211.86" text-anchor="middle" font-family="'IBM Plex Mono','SFMono-Regular',Menlo,monospace" font-size="10.5" fill="#6E6459">18 m²</text>
<text x="469.81" y="413.86" text-anchor="middle" font-family="'IBM Plex Mono','SFMono-Regular',Menlo,monospace" font-size="11.5" font-weight="500" fill="#1A1713" letter-spacing=".08em">ENTRÉE</text>
<text x="469.81" y="428.86" text-anchor="middle" font-family="'IBM Plex Mono','SFMono-Regular',Menlo,monospace" font-size="10.5" fill="#6E6459">8 m²</text>
<text x="646.57" y="144.78" text-anchor="middle" font-family="'IBM Plex Mono','SFMono-Regular',Menlo,monospace" font-size="11.5" font-weight="500" fill="#1A1713" letter-spacing=".08em">WC</text>
<text x="646.57" y="159.78" text-anchor="middle" font-family="'IBM Plex Mono','SFMono-Regular',Menlo,monospace" font-size="10.5" fill="#6E6459">3 m²</text>
<text x="646.57" y="361.78" text-anchor="middle" font-family="'IBM Plex Mono','SFMono-Regular',Menlo,monospace" font-size="11.5" font-weight="500" fill="#1A1713" letter-spacing=".08em">GARAGE</text>
<text x="646.57" y="376.78" text-anchor="middle" font-family="'IBM Plex Mono','SFMono-Regular',Menlo,monospace" font-size="10.5" fill="#6E6459">28 m²</text>
<g stroke="#6E6459" stroke-width="1" fill="none"><path d="M97.36 554.0h631.27"/><path d="M97.36 549.0v10M728.64 549.0v10"/></g><text x="413.0" y="545.0" text-anchor="middle" font-family="'IBM Plex Mono','SFMono-Regular',Menlo,monospace" font-size="11" fill="#6E6459">16.0 m</text>
<g stroke="#6E6459" stroke-width="1" fill="none"><path d="M57.36 74.0v434.0"/><path d="M52.36 74.0h10M52.36 508.0h10"/></g><text x="48.36" y="291.0" text-anchor="middle" font-family="'IBM Plex Mono','SFMono-Regular',Menlo,monospace" font-size="11" fill="#6E6459" transform="rotate(-90 48.36 291.0)">11.0 m</text>
<text x="30" y="40" font-family="'IBM Plex Mono','SFMono-Regular',Menlo,monospace" font-size="12" font-weight="600" fill="#1A1713" letter-spacing=".14em">TERANGA</text>
<text x="30" y="58" font-family="'IBM Plex Mono','SFMono-Regular',Menlo,monospace" font-size="11" fill="#6E6459" letter-spacing=".06em">REZ-DE-CHAUSSÉE</text>
<path d="M30 68h120" stroke="#D8D0C4" stroke-width="1"/>
<text x="770" y="40" text-anchor="end" font-family="'IBM Plex Mono','SFMono-Regular',Menlo,monospace" font-size="11" fill="#A79C8D" letter-spacing=".06em">ÉCH. 1:100</text>
<g stroke="#6E6459" fill="none" stroke-width="1.3"><circle cx="752" cy="548" r="15"/><path d="M752 548v-19l5 7h-10l5-7" fill="#1A1713"/></g>
<text x="752" y="576" text-anchor="middle" font-family="'IBM Plex Mono','SFMono-Regular',Menlo,monospace" font-size="10" fill="#6E6459">N</text>
</svg>