<svg xmlns="http://www.w3.org/2000/svg" viewBox="0 0 600 450" preserveAspectRatio="xMidYMid slice" role="img" aria-label="Vue d'ensemble du chantier avec grue"><defs><linearGradient id="s" x1="0" y1="0" x2="0" y2="1"><stop offset="0" stop-color="#F2E6D3"/><stop offset="1" stop-color="#E9DAC0"/></linearGradient></defs><rect width="600" height="450" fill="url(#s)"/><circle cx="486" cy="78" r="42" fill="#F0DCA2" opacity=".4"/><rect x="0" y="330" width="600" height="120" fill="#DCC7A4"/><rect x="0" y="330" width="600" height="14" fill="#CBB088" opacity=".5"/><rect x="90" y="150" width="300" height="180" fill="#F1E8D8"/><rect x="90" y="142" width="300" height="12" fill="#D9CDBA"/><path d="M390 330 l44 -24 v-166 l-44 24 z" fill="#BFB099"/><rect x="116" y="176" width="62" height="46" rx="3" fill="#5A4633" opacity=".85"/><rect x="210" y="176" width="62" height="46" rx="3" fill="#5A4633" opacity=".85"/><rect x="304" y="176" width="62" height="46" rx="3" fill="#5A4633" opacity=".85"/><rect x="116" y="260" width="62" height="46" rx="3" fill="#5A4633" opacity=".85"/><rect x="210" y="260" width="62" height="46" rx="3" fill="#5A4633" opacity=".85"/><rect x="304" y="260" width="62" height="46" rx="3" fill="#5A4633" opacity=".85"/><path d="M470 330 V90 M470 90 h84 M470 120 l26 -30 M470 120 l-24 -30" stroke="#B46B38" stroke-width="7" fill="none" stroke-linecap="round"/><path d="M548 90 v44" stroke="#8C8579" stroke-width="4"/><rect x="534" y="134" width="28" height="22" rx="3" fill="#8C8579"/><ellipse cx="60" cy="336" rx="30" ry="12" fill="#CBB088" opacity=".5"/><path d="M40 336 q20 -54 40 0 z" fill="#7F9370" opacity=".7"/></svg>